<svg width="20" height="20" viewBox="0 0 14 14" fill="none" xmlns="http://www.w3.org/2000/svg">
<path d="M13.7295 4.33181C13.7332 4.36112 13.7415 4.35537 13.7583 4.37606C13.7709 4.37031 13.7502 4.33454 13.7468 4.32894C13.7539 4.33656 13.7612 4.34431 13.7684 4.35193C13.7973 4.31731 13.7421 4.28757 13.7295 4.33181Z" fill="#F9FAFB"/>
<path d="M12.7349 5.81814C12.6551 5.80277 12.7643 5.69188 12.784 5.72391C12.784 5.71601 12.8049 5.66932 12.8204 5.69504C12.8181 5.688 12.8158 5.68096 12.8134 5.67378C12.9002 5.71673 13.0449 5.58716 13.1024 5.54004C13.1009 5.57768 13.0166 5.59707 13.0298 5.63729C13.0939 5.6179 13.1438 5.57021 13.2032 5.54248C13.2256 5.56647 12.786 5.80019 12.7349 5.81814Z" fill="#F9FAFB"/>
<path d="M12.4631 7.75819L12.4629 7.75836C12.468 7.75766 12.4676 7.75766 12.4631 7.75819Z" fill="#F9FAFB"/>
<path d="M9.36358 9.53882L9.3623 9.54033C9.36307 9.54108 9.36358 9.54083 9.36358 9.53882Z" fill="#F9FAFB"/>
<path d="M8.61328 4.04382C8.61561 4.04454 8.61795 4.04482 8.62028 4.04497L8.62853 4.03735C8.62308 4.03879 8.61795 4.04094 8.61328 4.04382C8.61795 4.04094 8.61561 4.04468 8.61328 4.04382Z" fill="#F9FAFB"/>
<path d="M6.76562 10.345L6.76758 10.343C6.76758 10.3445 6.7666 10.345 6.76562 10.345Z" fill="#F9FAFB"/>
<path d="M10.2715 9.66897L10.2705 9.66797L10.2715 9.66897Z" fill="#F9FAFB"/>
<path d="M9.62448 9.53955C9.62113 9.54025 9.61815 9.54113 9.61621 9.54236C9.61815 9.54184 9.62113 9.54078 9.62448 9.53955Z" fill="#F9FAFB"/>
<path d="M13.6164 5.33695C13.6365 5.36166 13.5948 5.37919 13.5915 5.3799L13.5889 5.38278V5.38393C13.6472 5.39585 13.654 5.33192 13.6164 5.33695Z" fill="#F9FAFB"/>
<path d="M13.4932 5.36457C13.4938 5.32176 13.4734 5.37089 13.4734 5.34575C13.4754 5.34374 13.4314 5.40939 13.4268 5.40062C13.4373 5.42016 13.5377 5.38338 13.5156 5.35451C13.5126 5.365 13.5006 5.36126 13.4932 5.36457Z" fill="#F9FAFB"/>
<path d="M12.4062 6.15899L12.4046 6.15914C12.3933 6.2357 12.4424 6.24432 12.4991 6.27937C12.5145 6.28885 12.5924 6.37332 12.596 6.37361C12.6327 6.37749 12.638 6.31773 12.6369 6.30351C12.6919 6.26486 12.826 5.88577 12.7179 5.85101C12.7204 5.85704 12.7231 5.86293 12.7255 5.86897C12.7173 5.849 12.6709 5.87371 12.6571 5.86423C12.6683 5.87184 12.6919 5.76884 12.6935 5.76554C12.7189 5.70793 12.7699 5.66843 12.8209 5.63008C12.8704 5.59302 13.1149 5.52133 13.1147 5.45971C13.135 5.49706 13.2698 5.44649 13.2666 5.435C13.246 5.38429 13.2722 5.32899 13.2481 5.27885C13.2953 5.28589 13.2969 5.36777 13.296 5.40024C13.3097 5.3909 13.3405 5.37381 13.3478 5.36907C13.3487 5.36591 13.3527 5.36605 13.3527 5.36605C13.3591 5.3649 13.3633 5.36705 13.3655 5.37251C13.3692 5.33272 13.4064 5.28517 13.4439 5.2665C13.4313 5.29049 13.4595 5.30399 13.4465 5.33603C13.4595 5.3231 13.4693 5.30873 13.4714 5.32367C13.4797 5.32094 13.4833 5.31678 13.4848 5.31074L13.4854 5.31893C13.5015 5.3152 13.5024 5.29624 13.5052 5.28417C13.5091 5.28604 13.5116 5.28934 13.5122 5.29365C13.5335 5.25659 13.5872 5.27555 13.6068 5.25659C13.6147 5.24898 13.6093 5.22987 13.6058 5.20631C13.6026 5.18361 13.5253 5.1026 13.5032 5.14742C13.5117 5.14928 13.5207 5.14526 13.5204 5.15445C13.5351 5.12185 13.5601 5.1816 13.5651 5.19223C13.5662 5.1839 13.5648 5.18074 13.5669 5.17399C13.5683 5.17887 13.5743 5.1862 13.5733 5.18462C13.5752 5.18476 13.5772 5.18505 13.5791 5.1852C13.6329 5.28834 13.4128 5.16896 13.3857 5.14397L13.3793 5.14756C13.3831 5.13607 13.3745 5.12745 13.3615 5.1217C13.3594 5.12314 13.3585 5.12515 13.3588 5.12759C13.3518 5.12055 13.3313 5.11481 13.323 5.11409C13.3125 5.12242 13.3017 5.10619 13.3081 5.10604C13.3037 5.11021 13.3255 5.04973 13.3237 5.05332C13.3185 5.04471 13.3107 5.04111 13.3 5.04269C13.3263 5.03092 13.3135 5.0154 13.3341 4.99615C13.3008 4.93683 13.2222 4.95852 13.2222 4.87089V4.86917L13.261 4.86744C13.2781 4.84403 13.3188 4.79763 13.3291 4.76172C13.3361 4.73701 13.3454 4.71058 13.3518 4.68659C13.3591 4.65944 13.3909 4.62223 13.394 4.59824C13.3951 4.60916 13.4017 4.61864 13.4097 4.62654C13.4333 4.59709 13.4245 4.59322 13.4427 4.61246L13.4445 4.60887C13.4472 4.61088 13.4469 4.62123 13.4473 4.62482C13.4479 4.62424 13.4665 4.53791 13.4724 4.54524C13.4612 4.55156 13.4904 4.57138 13.4951 4.57196C13.5214 4.57497 13.5033 4.54595 13.5178 4.53935C13.5159 4.54021 13.5697 4.50027 13.5598 4.51521C13.5631 4.51737 13.5655 4.5201 13.5674 4.5234C13.6405 4.47657 13.5803 4.32861 13.5962 4.26828C13.6159 4.29586 13.6338 4.36481 13.6687 4.38061C13.7376 4.41193 13.6646 4.33809 13.6973 4.33436C13.6968 4.33465 13.7083 4.29701 13.706 4.29773C13.7267 4.3289 13.7696 4.25248 13.8081 4.32244C13.8104 4.33278 13.8329 4.24343 13.8342 4.24113C13.8462 4.243 13.8574 4.24645 13.8679 4.25176C13.8732 4.24386 13.8785 4.23596 13.8838 4.2282C13.8799 4.23754 13.8835 4.23869 13.8945 4.23136C13.8892 4.17405 13.9031 4.22475 13.919 4.18223C13.9228 4.18884 13.9266 4.19559 13.9305 4.2022C13.9243 4.18022 13.9916 4.15293 13.996 4.13411C14.0114 4.0676 13.9802 4.1219 13.9446 4.09676C13.9466 4.09633 13.9778 4.06961 13.9778 4.06961C13.9442 4.05927 13.8889 4.03241 13.8673 4.00813C13.8468 3.985 13.8547 3.9501 13.8413 3.93358C13.8247 3.91318 13.7857 3.92438 13.7575 3.90729C13.7135 3.88057 13.6971 3.80041 13.6842 3.75675C13.6562 3.66237 13.6427 3.48137 13.5192 3.44589C13.4325 3.42104 13.4274 3.48324 13.3607 3.49703C13.3182 3.50579 13.3041 3.4683 13.2841 3.4706C13.1903 3.48137 13.1511 3.77312 13.1487 3.84365C13.1457 3.92582 13.142 3.98141 13.1191 4.0587C13.1096 4.09059 13.1023 4.20651 13.0788 4.22576C13.0645 4.23754 13.0153 4.23323 12.9934 4.2476C12.9709 4.26225 12.9626 4.28724 12.9446 4.3052C12.8987 4.35074 12.8604 4.37113 12.7938 4.38737C12.645 4.42342 12.4882 4.43621 12.3376 4.46565C12.1455 4.50329 12.0775 4.58546 11.9702 4.72667C11.9786 4.72408 11.9146 4.81932 11.8974 4.87922C11.9027 4.87032 11.9079 4.86155 11.9131 4.85265C11.9059 4.85969 11.9504 4.87405 11.9611 4.86859C11.9552 4.8979 11.8743 4.98337 11.9587 5.00937C11.9216 5.02014 11.7869 5.1059 11.8036 5.15129C11.7189 5.09067 11.3915 5.12716 11.3193 5.19611C11.2489 5.26348 11.361 5.28618 11.3515 5.3649C11.3371 5.4847 11.1919 5.57793 11.0846 5.6272C11.0907 5.62189 11.0955 5.61586 11.0992 5.60896C10.9749 5.71799 10.8261 5.83406 10.6624 5.8875C10.6027 5.90703 10.475 5.94955 10.4185 5.93533L10.4148 5.94007L10.4142 5.93361C10.4212 5.93145 10.3955 5.93907 10.3956 5.93131C10.4022 5.93016 10.4089 5.92944 10.4154 5.92901C10.4154 5.92901 10.4476 5.90086 10.4397 5.9066C10.4462 5.901 10.3325 5.87758 10.3222 5.86537L10.3146 5.85891C10.3152 5.86164 10.3158 5.86437 10.3165 5.8671C10.3076 5.87256 10.2906 5.86911 10.2833 5.8648C10.2833 5.8648 10.281 5.83147 10.2916 5.85245C10.2737 5.79728 10.3421 5.68265 10.3711 5.63654C10.4124 5.57061 10.4031 5.54719 10.4753 5.5584C10.4966 5.4689 10.4409 5.23964 10.3764 5.16954C10.3401 5.13032 10.2841 5.12572 10.2353 5.15776C10.1931 5.18534 10.2038 5.23734 10.1645 5.26406C10.096 5.31046 10.0836 5.23863 10.0976 5.18778C10.1116 5.13736 10.1662 5.1026 10.1814 5.05261C10.1944 5.01052 10.1231 4.84159 10.1357 4.82909C10.1516 4.82952 10.1676 4.82995 10.1835 4.83038C10.1556 4.81702 10.1553 4.77781 10.1331 4.75884C10.1027 4.73299 10.0614 4.72264 10.0242 4.70828C9.93785 4.67495 9.83876 4.62841 9.742 4.64953C9.76534 4.65441 9.71292 4.74448 9.77576 4.75611C9.76705 4.78743 9.72583 4.76445 9.70732 4.78211C9.68212 4.80596 9.68336 4.83957 9.67698 4.8696C9.67512 4.87807 9.67185 4.98696 9.64447 4.97346C9.65443 4.95536 9.63623 4.97532 9.62985 4.97058C9.61834 4.95234 9.63405 4.8989 9.62161 4.91226C9.62425 4.90292 9.62689 4.89344 9.62923 4.88396L9.63374 4.88683C9.63405 4.86873 9.63421 4.85078 9.63436 4.83268C9.60916 4.84891 9.60947 4.8808 9.59221 4.90149C9.5751 4.92203 9.54212 4.93754 9.52734 4.95909C9.49965 4.9996 9.48161 5.0753 9.50867 5.11308C9.35732 5.12213 9.52734 5.51386 9.54383 5.58167C9.57074 5.69271 9.50276 6.0142 9.32807 5.99078C9.2055 5.9744 9.15883 5.78996 9.14576 5.69989C9.12632 5.56558 9.14188 5.42509 9.17221 5.29322C9.18465 5.23906 9.31485 4.85265 9.29447 4.84647C9.25123 4.8334 9.27472 4.89632 9.23879 4.88224C9.23319 4.93381 9.11808 5.07588 9.06083 5.08608C9.0599 5.07358 9.06425 5.07128 9.07359 5.07904C9.06845 5.07128 9.06659 5.06281 9.06783 5.05376C9.07001 5.05548 9.07156 5.05447 9.07234 5.05792C9.06861 4.8979 9.28156 4.8061 9.28156 4.6468C9.27752 4.67136 9.26601 4.69664 9.2923 4.7146C9.29976 4.7067 9.37396 4.64766 9.37396 4.64766C9.38579 4.67294 9.37536 4.68228 9.35856 4.69047C9.35343 4.7011 9.33818 4.71374 9.34518 4.72408C9.34907 4.7258 9.36199 4.73485 9.36945 4.73586C9.36821 4.73184 9.36276 4.72149 9.36696 4.71517C9.41363 4.64005 9.52656 4.59551 9.61585 4.58144C9.63374 4.57856 9.81232 4.60686 9.80843 4.61203C9.73921 4.56506 9.89585 4.55946 9.90036 4.5596C9.93069 4.57784 9.95994 4.54064 9.99214 4.55903C9.98996 4.52455 9.91514 4.49453 9.90534 4.48835C9.91669 4.36884 9.62596 4.4691 9.71463 4.3358C9.61289 4.37429 9.50836 4.39627 9.40756 4.43822C9.33165 4.46996 9.26399 4.48562 9.18496 4.44971C9.13441 4.42673 9.09505 4.3753 9.03936 4.36093C8.9675 4.3424 8.99052 4.37573 8.93748 4.38995C8.93934 4.38866 8.93296 4.36941 8.92223 4.37932L8.91834 4.37702C8.91197 4.38895 8.90419 4.40001 8.8947 4.41006C8.91368 4.39713 8.92223 4.31252 8.9451 4.2881C8.91617 4.25463 9.03781 4.20148 9.06052 4.20033C9.01354 4.10208 8.75859 4.34801 8.72328 4.37429C8.66728 4.41595 8.60568 4.46106 8.53614 4.48117C8.46117 4.50286 8.40066 4.48361 8.32957 4.50257C8.32319 4.42112 8.37328 4.37832 8.25366 4.42414C8.19968 4.44483 8.07104 4.5336 8.01379 4.49137C8.08052 4.49898 8.19688 4.32129 8.23826 4.28308C8.35119 4.17922 8.51546 4.14618 8.63057 4.04433C8.56072 4.0666 8.46988 4.04591 8.40252 4.0248C8.38308 4.01862 8.33206 3.98831 8.32303 3.9886C8.2675 3.99032 8.22581 4.0485 8.16997 4.04404C8.1345 4.04131 8.09935 4.00942 8.06388 3.99879C7.99839 3.97897 7.95919 3.97797 7.9007 3.94421C7.8419 3.91045 7.82215 3.89034 7.74546 3.8912C7.6389 3.89235 7.52395 3.93688 7.45099 3.83848C7.40853 3.77944 7.46671 3.69038 7.31115 3.66797C7.31115 3.70618 7.31115 3.74439 7.31115 3.78275C5.28894 3.86836 2.0534 3.259 1.17809 3C1.18152 3.00646 1.19163 3.01278 1.19521 3.01925C1.19552 3.02054 1.17592 3.00962 1.17545 3.00962C1.16689 3.01063 1.18805 3.09581 1.18789 3.09481C1.22041 3.05832 1.25478 3.15773 1.19769 3.14135C1.20081 3.1527 1.18214 3.14925 1.16207 3.15615C1.16409 3.16706 1.16705 3.17784 1.17078 3.18847C1.17498 3.182 1.18214 3.29951 1.19458 3.3064C1.18634 3.29879 1.23145 3.33111 1.22149 3.33643L1.22087 3.33873C1.15025 3.36214 1.15741 3.42721 1.15834 3.47189C1.15492 3.46241 1.15087 3.45307 1.14745 3.44359C1.12458 3.46959 1.12474 3.50723 1.11587 3.53782C1.09036 3.53782 1.08181 3.51139 1.08181 3.51139C1.1011 3.49545 1.10934 3.45968 1.10794 3.43713L1.09332 3.43885C1.11929 3.39504 1.12474 3.35826 1.11136 3.35668C1.09207 3.35438 1.10172 3.25828 1.10172 3.25828C1.09425 3.26029 1.05178 3.27006 1.05116 3.27035C1.05116 3.27035 1.05521 3.24722 1.02254 3.23329C1.02441 3.23171 0.985673 3.24679 0.960007 3.22093C0.963896 3.22165 0.847385 3.16994 0.79403 3.13086C0.768363 3.11205 0.745808 3.06522 0.705519 3.07197C0.719364 3.08289 0.722786 3.09036 0.707386 3.09854C0.664142 3.1922 0.692608 3.32608 0.703497 3.41903C0.714386 3.43784 0.695253 3.51398 0.685608 3.53509L0.688875 3.54572L0.690119 3.55262H0.697119L0.703497 3.56627L0.699608 3.56856C0.698053 3.56095 0.673319 3.62013 0.725741 3.60634C0.738808 3.6118 0.74363 3.61942 0.72963 3.62215C0.72963 3.62215 0.712053 3.62875 0.706608 3.63852C0.702253 3.647 0.716875 3.66754 0.705986 3.67688L0.700231 3.67515L0.693853 3.6809C0.698675 3.69095 0.686853 3.71523 0.683586 3.72758C0.650764 3.70374 0.68903 3.65605 0.681719 3.62617C0.671608 3.66352 0.642831 3.6967 0.641586 3.73635C0.64252 3.73678 0.704897 3.75473 0.699764 3.75315C0.745497 3.76637 0.709408 3.77599 0.713453 3.77872C0.704742 3.77643 0.696186 3.77413 0.687475 3.77168C0.684364 3.77326 0.685453 3.78217 0.685453 3.78217L0.678453 3.78576L0.679697 3.78217C0.67052 3.77269 0.661342 3.7951 0.65232 3.78562C0.664297 3.83288 0.611875 3.83906 0.621831 3.95024C0.622764 3.96044 0.610475 3.98429 0.606431 4.00124C0.601609 3.9965 0.596631 3.98385 0.591809 3.97911C0.580764 3.9896 0.60192 4.01014 0.582164 4.01287C0.537053 4.07637 0.49412 4.20048 0.490232 4.23539C0.474521 4.24702 0.463943 4.269 0.46021 4.2871C0.464098 4.28638 0.467832 4.28509 0.471721 4.28437C0.448232 4.36323 0.384299 4.42486 0.358166 4.50272C0.377299 4.48059 0.294233 4.56607 0.282877 4.59264C0.134789 4.69492 0.203078 4.89402 0.185967 5.02732C0.168855 5.08363 0.172122 5.14311 0.155011 5.19956C0.135567 5.26334 0.0946559 5.31908 0.0654116 5.37912C0.0756782 5.3672 0.0601227 5.38702 0.0623005 5.38027C-0.0507878 5.42064 0.0213896 5.59862 0.0378784 5.69414C0.0539005 5.78723 0.0145452 5.87313 0.0203007 5.96579C0.0277673 6.08573 0.127789 6.24763 0.127322 6.22435C0.0937225 6.25668 0.186433 6.34674 0.1995 6.38223C0.218789 6.43451 0.188922 6.48738 0.187678 6.53981C0.186278 6.59727 0.201522 6.61853 0.2387 6.66464C0.247411 6.67541 0.31181 6.75801 0.299521 6.75686C0.299521 6.75686 0.253166 6.78157 0.249122 6.77927C0.185344 6.87221 0.245699 6.97306 0.300144 7.05494C0.325655 7.09343 0.356455 7.13006 0.37761 7.17086C0.38881 7.19241 0.396432 7.26208 0.396432 7.28291L0.398921 7.28233C0.402032 7.29282 0.414788 7.30201 0.424432 7.30704C0.424588 7.30532 0.424899 7.30345 0.425054 7.30173C0.438432 7.29914 0.421787 7.51993 0.441387 7.54492C0.458965 7.56748 0.538142 7.5613 0.567542 7.5692C0.648742 7.5906 0.688253 7.66559 0.759341 7.68527C0.714853 7.68469 0.762763 7.73454 0.780652 7.73354C0.780652 7.73354 0.87943 7.75307 0.916607 7.79258C0.944607 7.82217 0.928118 7.87862 0.966851 7.90261C0.977273 7.90031 1.01305 7.90247 1.01212 7.89385C1.02783 7.91496 1.05365 7.95059 1.06314 7.95332C1.09596 8.02127 1.15352 8.06594 1.16969 8.14107C1.17841 8.18172 1.15741 8.25024 1.17016 8.28084L1.17529 8.27495C1.19287 8.2896 1.19801 8.30727 1.19038 8.3281C1.31218 8.33916 1.4346 8.34994 1.55516 8.36976C1.66109 8.38714 1.76951 8.42305 1.87856 8.40912C1.86502 8.43052 1.84869 8.44992 1.82987 8.46758C2.08825 8.61468 2.3376 8.77715 2.61169 8.89939C2.88391 9.02078 3.16157 9.05396 3.45759 9.09246C3.53568 9.10266 3.59962 9.11142 3.63928 9.03816C3.67506 8.97208 3.63555 8.97941 3.72919 8.9738C3.7981 8.96964 3.8793 8.97797 3.94728 8.98803C4.08246 9.00785 4.18123 9.06919 4.27581 9.15811C4.35359 9.23137 4.46745 9.32115 4.51925 9.40935C4.59408 9.53648 4.59299 9.6988 4.69628 9.81473C4.71541 9.83613 4.73688 9.8607 4.76612 9.8709C4.7907 9.87951 4.83519 9.86443 4.85105 9.87118C4.86148 9.87564 4.89336 9.92519 4.91312 9.9364C4.95761 9.96183 5.00692 9.9759 5.05514 9.94804C5.12576 9.90724 5.12125 9.80439 5.20043 9.76416C5.27401 9.72667 5.37014 9.75483 5.44792 9.75612C5.53036 9.75741 5.51916 9.75454 5.5806 9.81114C5.64889 9.87406 5.70645 9.92663 5.75436 10.0065C5.82529 10.125 5.87974 10.2348 5.97307 10.3405C6.06174 10.4409 6.08118 10.5422 6.13967 10.6552C6.16845 10.7107 6.26956 10.9266 6.35138 10.8839L6.35324 10.8915C6.40333 10.9076 6.47489 10.9336 6.52684 10.9461C6.56713 10.9559 6.66918 10.9583 6.6642 10.9651C6.66638 10.9644 6.653 10.9636 6.65502 10.9629C6.65611 10.9654 6.65253 10.9718 6.65175 10.9704L6.64989 10.9681C6.69795 11.0306 6.73358 10.9816 6.78631 10.984L6.786 10.9875L6.78802 10.9863L6.78522 10.9869C6.7888 10.9753 6.78398 10.9633 6.78569 10.9516C6.7776 10.9539 6.77542 10.9562 6.7818 10.9533C6.78787 10.9651 6.7664 10.9516 6.7664 10.9516L6.76889 10.9552C6.76858 10.952 6.76967 10.9496 6.77278 10.9481C6.77122 10.9511 6.74011 10.9359 6.737 10.9346C6.73995 10.9276 6.74182 10.9345 6.744 10.9352C6.74151 10.929 6.73933 10.9227 6.73762 10.9164L6.74089 10.9175L6.74151 10.9086C6.73747 10.9089 6.73575 10.907 6.73575 10.9033C6.7342 10.8996 6.73015 10.9138 6.73 10.9157C6.72207 10.8999 6.74182 10.8796 6.73062 10.8632C6.72844 10.8662 6.72642 10.8691 6.72424 10.8721C6.72829 10.8618 6.72378 10.8581 6.71149 10.8627C6.70791 10.8629 6.71507 10.8547 6.71662 10.8532L6.70962 10.8549L6.71087 10.8507C6.70838 10.8537 6.70542 10.8547 6.702 10.853C6.70744 10.848 6.7104 10.8537 6.71164 10.8441C6.71164 10.8441 6.69733 10.8467 6.6964 10.8471C6.70153 10.8425 6.69329 10.8227 6.70215 10.8312L6.70464 10.827C6.70247 10.8283 6.70029 10.8283 6.69827 10.827L6.7034 10.8247C6.70309 10.8124 6.70635 10.8147 6.70791 10.8213C6.73264 10.7801 6.6852 10.7315 6.67213 10.6946C6.67509 10.6972 6.71382 10.7203 6.68489 10.694C6.68598 10.6963 6.68707 10.6987 6.68815 10.701C6.66591 10.7077 6.67275 10.6689 6.67353 10.6615C6.68038 10.6623 6.68707 10.6631 6.69391 10.6638C6.70542 10.6388 6.70511 10.6067 6.71242 10.5802C6.70589 10.5811 6.65502 10.5815 6.66715 10.5643C6.6544 10.5672 6.6908 10.5588 6.68815 10.562C6.70993 10.5794 6.79129 10.4471 6.75069 10.4471C6.75069 10.4471 6.74415 10.4471 6.7482 10.4471C6.72595 10.4471 6.71195 10.4172 6.70604 10.3946C6.73264 10.4024 6.74602 10.383 6.73607 10.4033C6.7566 10.3946 6.7748 10.4 6.78164 10.4089C6.80311 10.4035 6.83095 10.3583 6.83562 10.3448C6.835 10.3469 6.83578 10.3481 6.83811 10.3482C6.83795 10.3349 6.83702 10.305 6.83562 10.3116C6.842 10.3126 6.84775 10.3149 6.85289 10.3187C6.85289 10.3064 6.8658 10.3174 6.86751 10.3195C6.8714 10.3112 6.89473 10.3027 6.88229 10.305C6.9232 10.2783 6.87202 10.2136 6.91029 10.2066C6.91013 10.2243 6.94575 10.2511 6.95306 10.2549C6.95306 10.2549 7.0016 10.2338 7.02898 10.2201C7.02633 10.2158 7.0226 10.2134 7.01809 10.2154C7.01809 10.2154 6.99102 10.203 6.99958 10.2007C6.99709 10.1871 6.98106 10.1792 6.96769 10.1749C6.9694 10.1829 6.94871 10.1371 6.94918 10.1312C7.03411 10.1494 7.01513 10.146 7.10037 10.1188C7.09431 10.1256 7.05931 10.168 7.07424 10.1783C7.08933 10.1783 7.094 10.1809 7.07937 10.2047C7.08109 10.2039 7.44057 9.98409 7.37726 9.97317C7.40837 9.98251 7.45659 9.95723 7.47355 9.93439C7.49408 9.90681 7.48802 9.8956 7.50482 9.92836C7.57388 9.94947 7.68059 9.7995 7.7817 9.82823L7.78295 9.81875C7.88577 9.7712 7.9889 9.80898 8.09219 9.83125C8.13279 9.84001 8.17246 9.84978 8.21477 9.84547C8.24992 9.84188 8.27263 9.81774 8.29317 9.80166C8.28586 9.80381 8.25366 9.80065 8.26252 9.78571C8.27948 9.79117 8.3585 9.73802 8.36737 9.77221C8.35492 9.77709 8.3571 9.78657 8.35881 9.79217C8.37655 9.80424 8.42959 9.77925 8.44748 9.77738C8.44063 9.7906 8.43395 9.80367 8.4271 9.81688C8.44732 9.83556 8.47672 9.81099 8.45712 9.85107C8.51359 9.85481 8.51639 9.85639 8.51639 9.85639C8.52246 9.85983 8.53443 9.85222 8.53941 9.84992C8.53272 9.84949 8.55092 9.89057 8.57006 9.89761C8.59168 9.90566 8.61066 9.89977 8.60677 9.90695C8.61439 9.92491 8.69341 9.90393 8.67879 9.94114C8.66681 9.94286 8.65499 9.94459 8.64301 9.94631C8.63259 9.95823 8.67988 9.96455 8.68097 9.96714C8.67739 9.96096 8.69497 9.95594 8.69232 9.97174C8.70103 9.96068 8.71052 9.9578 8.72063 9.96297C8.7197 9.95967 8.72592 9.95795 8.73417 9.95881C8.73354 9.94459 8.73059 9.93281 8.74381 9.93123C8.74319 9.9216 8.75439 9.90954 8.76808 9.90853C8.76683 9.90164 8.81101 9.9262 8.82097 9.93439C8.82392 9.93338 8.84197 9.91069 8.83792 9.91126C8.85145 9.91974 8.84757 9.99515 8.88739 9.95493C8.89392 9.94832 8.89952 9.88397 8.88754 9.88612C8.89376 9.89057 8.90014 9.89503 8.90637 9.89934C8.90388 9.89991 8.88085 9.85969 8.9115 9.85351C8.92628 9.84576 9.01136 9.86745 8.96921 9.88871C8.99114 9.88842 9.0221 9.89129 9.01588 9.89517C9.04776 9.91399 9.1243 9.92261 9.1271 9.96786C9.13223 9.95967 9.13736 9.95148 9.1425 9.94329C9.15727 9.95364 9.16925 9.96628 9.17812 9.98136C9.18216 9.92922 9.19554 9.9601 9.20954 9.93022C9.18076 9.92907 9.16241 9.88785 9.15479 9.86615C9.15432 9.86587 9.14763 9.88267 9.14499 9.88325C9.11621 9.87118 9.01712 9.80008 9.02536 9.79103C9.01836 9.78427 9.05834 9.78384 9.06519 9.786C9.05196 9.76689 9.02163 9.77034 9.0123 9.75827C9.02568 9.72926 9.08774 9.72523 9.10143 9.73845C9.10687 9.72509 9.08339 9.70584 9.08976 9.70714C9.08276 9.70153 9.08961 9.69018 9.08696 9.68157C9.07359 9.683 9.06394 9.67352 9.07032 9.67108C9.06581 9.66648 9.0613 9.66174 9.05679 9.65715C9.04232 9.65887 8.98088 9.76086 8.96594 9.68013C8.95785 9.63588 9.18512 9.54424 9.23116 9.53792C9.23132 9.52283 9.1943 9.53892 9.18776 9.5303C9.2447 9.50545 9.39418 9.57268 9.43338 9.54151C9.44147 9.51048 9.43727 9.44282 9.48005 9.43018C9.50821 9.44339 9.50136 9.5734 9.55658 9.54036C9.55207 9.54754 9.54756 9.55472 9.54321 9.56191C9.57121 9.55774 9.70841 9.51091 9.70841 9.51091C9.76378 9.5892 9.91389 9.44354 9.91218 9.47615C9.91234 9.47198 10.1248 9.54108 10.1415 9.53662C10.1513 9.54783 10.19 9.54467 10.1785 9.55041C10.1979 9.57455 10.2468 9.59509 10.2612 9.6208C10.2665 9.63014 10.2681 9.66548 10.2709 9.6672C10.3224 9.66964 10.37 9.63948 10.4151 9.62109C10.4106 9.62741 10.4062 9.63373 10.4017 9.63991C10.4691 9.6537 10.4877 9.55286 10.558 9.57153C10.5697 9.55228 10.521 9.5586 10.5241 9.53964C10.5562 9.54912 10.5636 9.54883 10.5465 9.53849C10.5437 9.53648 10.5456 9.52398 10.5453 9.52197C10.7436 9.50674 10.7937 9.58115 10.9283 9.70196C11.0168 9.7814 11.1152 9.79964 11.1118 9.93381C11.0826 9.98438 11.0862 10.0848 11.1067 10.1368C11.1507 10.2484 11.1495 10.1401 11.1639 10.1447C11.168 10.146 11.1602 10.1682 11.1591 10.168C11.1627 10.1535 11.1674 10.1391 11.1731 10.1252C11.154 10.1286 11.1611 10.148 11.2025 10.1434C11.2011 10.1326 11.224 10.1272 11.2262 10.1322C11.2325 10.1468 11.2112 10.1648 11.2064 10.1783C11.1879 10.2293 11.1605 10.2237 11.173 10.2804C11.1874 10.3464 11.275 10.4264 11.3428 10.4485C11.3528 10.4445 11.3221 10.3974 11.3268 10.3896C11.3413 10.3991 11.3568 10.4005 11.3735 10.3936C11.3326 10.4099 11.3707 10.4828 11.389 10.5021C11.39 10.5031 11.4596 10.5598 11.4442 10.5279C11.4702 10.5604 11.4792 10.608 11.4876 10.6463C11.4883 10.6404 11.5138 10.6452 11.5119 10.671C11.5166 10.6697 11.5203 10.6847 11.515 10.6781C11.5163 10.6844 11.5175 10.6906 11.5189 10.6969C11.5531 10.6538 11.6784 10.7163 11.6847 10.7322C11.6692 10.7377 11.6662 10.7479 11.6707 10.7581L11.6738 10.7558C11.7135 10.815 11.7431 10.8174 11.7977 10.8578C11.7907 10.8572 11.7236 10.8609 11.7289 10.8823C11.7502 10.9669 11.968 10.8231 11.9871 10.7904C12.0391 10.7015 12.0125 10.5393 11.998 10.4442C11.9784 10.3155 11.9095 10.2316 11.8356 10.1259C11.7939 10.0663 11.7725 10.0013 11.7382 9.93855C11.7076 9.88253 11.6488 9.83613 11.6311 9.77451C11.6424 9.77839 11.653 9.78341 11.663 9.78973C11.5992 9.69176 11.509 9.61434 11.4665 9.50473C11.4618 9.49252 11.383 9.23079 11.3497 9.28825C11.3515 9.28495 11.3238 9.18037 11.3126 9.17534C11.3447 9.18339 11.3512 9.16285 11.3442 9.138C11.3377 9.13886 11.3307 9.12579 11.3394 9.12234C11.3312 9.11602 11.3268 9.10855 11.333 9.11113C11.328 9.10596 11.3223 9.10165 11.3158 9.09821C11.3173 9.09706 11.3187 9.09591 11.3203 9.09461C11.3178 9.08815 11.3181 9.08786 11.3301 9.08714C11.3352 9.0768 11.3483 9.07106 11.354 9.07939C11.3616 9.06373 11.3693 9.04822 11.377 9.03256C11.3662 9.035 11.3514 9.01015 11.3746 9.0146C11.3691 8.99909 11.3886 8.99291 11.3777 8.95341C11.3714 8.95786 11.378 8.93732 11.3923 8.93933C11.396 8.9231 11.4432 8.75359 11.446 8.75201C11.4744 8.73606 11.4803 8.74899 11.4932 8.71251C11.4931 8.70935 11.4999 8.70173 11.504 8.7013C11.5104 8.69268 11.5872 8.65505 11.5418 8.63264C11.5387 8.63106 11.515 8.64255 11.5158 8.64485C11.5281 8.62172 11.5035 8.62804 11.52 8.62775C11.6056 8.62574 11.6752 8.5509 11.7213 8.49287C11.7513 8.45494 11.8429 8.39518 11.8541 8.35568C11.856 8.34893 11.8359 8.32264 11.8375 8.32135C11.8384 8.32049 11.8397 8.31934 11.8409 8.31804C11.8703 8.28702 11.9753 8.12871 11.9921 8.11162C12.0201 8.10516 12.0511 8.09654 12.0772 8.08605C12.1366 8.06206 12.1085 8.09582 12.1568 8.03893C12.2058 7.98133 12.2167 7.90189 12.2738 7.84501C12.2656 7.84012 12.2572 7.83524 12.2489 7.83021C12.2593 7.82475 12.2698 7.81915 12.2802 7.81369C12.2794 7.82102 12.2785 7.8282 12.2777 7.83553C12.3004 7.8486 12.3354 7.78324 12.3178 7.76715C12.3269 7.76902 12.334 7.77333 12.3396 7.78008C12.3351 7.78266 12.3373 7.78654 12.3345 7.79013C12.3804 7.79559 12.4524 7.72994 12.4723 7.73354C12.4737 7.73914 12.4751 7.74474 12.4765 7.75049C12.5009 7.76557 12.5316 7.66932 12.5174 7.65352C12.5241 7.65755 12.4829 7.64117 12.4777 7.64117C12.4818 7.65209 12.4857 7.663 12.4897 7.67392C12.4695 7.6745 12.2873 7.71702 12.3003 7.66947C12.3213 7.66243 12.3233 7.65381 12.3065 7.64332C12.3065 7.64332 12.4091 7.71472 12.4431 7.62709C12.4354 7.62321 12.428 7.61933 12.4203 7.61546C12.446 7.6087 12.4569 7.59319 12.4527 7.5692C12.4328 7.6021 12.3136 7.54607 12.2936 7.5284C12.3256 7.52927 12.3885 7.5511 12.4132 7.52108C12.3863 7.52697 12.3777 7.51878 12.3875 7.49637C12.3085 7.47123 12.4426 7.48517 12.4487 7.48445C12.4518 7.4912 12.4474 7.49824 12.4507 7.50599C12.4393 7.50398 12.43 7.50714 12.4228 7.51519C12.4681 7.56302 12.5151 7.53142 12.5681 7.52381C12.5593 7.51921 12.5798 7.47238 12.5784 7.47798C12.5784 7.47798 12.5964 7.46161 12.5963 7.46204C12.5946 7.46146 12.6173 7.44997 12.6142 7.45198C12.6611 7.44652 12.6352 7.34209 12.598 7.33634C12.5432 7.32801 12.5644 7.41981 12.516 7.429C12.5267 7.40357 12.5281 7.34496 12.537 7.34238C12.5288 7.33304 12.3704 7.3724 12.3475 7.38475C12.3552 7.34396 12.3605 7.32227 12.3819 7.32859C12.395 7.33247 12.4165 7.34956 12.4326 7.34267C12.4735 7.32514 12.4121 7.30603 12.4031 7.29038C12.4188 7.30201 12.5207 7.29799 12.509 7.27687C12.5003 7.27544 12.4916 7.27414 12.4829 7.27271C12.4883 7.25174 12.5196 7.26797 12.5303 7.27113C12.5297 7.26107 12.5292 7.25102 12.5286 7.24111C12.5395 7.25001 12.4483 7.16555 12.5191 7.15233C12.5191 7.26438 12.6451 7.32342 12.6923 7.41578C12.7159 7.46233 12.7257 7.50916 12.686 7.55081C12.6716 7.56604 12.5871 7.57825 12.6073 7.61373C12.7212 7.52223 12.7624 7.50125 12.6764 7.35962C12.6414 7.30201 12.5333 7.06614 12.4608 7.04761C12.4504 7.05522 12.4519 7.06197 12.4651 7.06772C12.4539 7.0568 12.4084 7.04273 12.3922 7.04675C12.3931 7.06269 12.4012 7.07433 12.4166 7.08194C12.4001 7.07893 12.3869 7.08367 12.3771 7.09602C12.3762 7.09157 12.3765 7.08927 12.3783 7.08539C12.3675 7.08525 12.3567 7.08496 12.3458 7.08481C12.3752 7.02951 12.2284 7.00839 12.1982 6.99173C12.2049 6.98211 12.2116 6.97248 12.2181 6.96286C12.2281 6.98484 12.3776 7.05853 12.3979 7.03095C12.4283 6.98972 12.2597 6.94749 12.2492 6.91617C12.2702 6.92809 12.3192 6.96803 12.3466 6.95452C12.3466 6.95452 12.3202 6.9064 12.3209 6.90181C12.3329 6.90985 12.3541 6.94246 12.3735 6.937C12.3732 6.87135 12.3083 6.8715 12.2626 6.84277C12.2108 6.81016 12.1729 6.78013 12.1218 6.72885C12.1803 6.75184 12.334 6.85598 12.3398 6.84837C12.3517 6.83285 12.3286 6.79105 12.3213 6.77784C12.3283 6.77626 12.3353 6.77468 12.3423 6.7731C12.3367 6.76764 12.3309 6.76218 12.3253 6.75686C12.3297 6.75643 12.3335 6.75514 12.3371 6.75284C12.334 6.77525 12.2155 6.69639 12.2015 6.7007C12.2032 6.70845 12.2051 6.71607 12.2068 6.72382C12.1646 6.72856 12.1445 6.66191 12.1139 6.65387C12.0831 6.64568 12.0579 6.68303 12.0212 6.67024C12.0282 6.66938 12.0347 6.66737 12.0409 6.66435C12.0315 6.65774 12.0218 6.65099 12.0123 6.64439C12.0187 6.64697 12.0251 6.64956 12.0315 6.652C12.0198 6.63318 12.028 6.55532 12.0461 6.57903C12.0523 6.57773 12.0557 6.56251 12.05 6.55834C12.0675 6.54599 12.0789 6.53004 12.0842 6.51065C12.1022 6.54886 12.0515 6.55403 12.0567 6.59023C12.0623 6.58535 12.0604 6.58693 12.066 6.58204C12.0613 6.58994 12.0403 6.66177 12.0554 6.66076C12.0632 6.65875 12.0954 6.62226 12.101 6.60919C12.0996 6.62068 12.1483 6.67872 12.1534 6.67211C12.1553 6.66593 12.1573 6.6599 12.1592 6.65372C12.1685 6.6622 12.1777 6.67067 12.187 6.67915C12.1873 6.67096 12.1876 6.66292 12.1878 6.65473C12.1954 6.65559 12.2032 6.6566 12.2108 6.65746C12.1977 6.68561 12.2152 6.69768 12.2626 6.69351C12.2628 6.68604 12.2629 6.67857 12.2631 6.6711C12.2713 6.69222 12.2866 6.70702 12.309 6.71535C12.3292 6.64482 12.2161 6.63807 12.1836 6.59827C12.1897 6.60574 12.2674 6.62614 12.2685 6.62284C12.2785 6.59425 12.217 6.44285 12.1758 6.44701C12.1911 6.43739 12.2061 6.42791 12.2214 6.41828C12.2094 6.41512 12.1976 6.41196 12.1856 6.4088C12.194 6.40751 12.2024 6.40607 12.2108 6.40478C12.2127 6.39084 12.1528 6.37116 12.1461 6.35622C12.1831 6.40708 12.2119 6.30149 12.208 6.29963C12.2155 6.3071 12.2254 6.29503 12.2229 6.28167C12.2354 6.3071 12.2796 6.22364 12.2929 6.22464C12.2908 6.23427 12.2886 6.24389 12.2866 6.25366C12.3144 6.25639 12.3038 6.2189 12.3244 6.21272C12.3183 6.22766 12.3208 6.24131 12.3317 6.2538C12.3267 6.26343 12.2819 6.24949 12.2912 6.27492C12.3063 6.27636 12.3214 6.27794 12.3363 6.27937C12.3374 6.28354 12.1764 6.32893 12.2623 6.40277C12.2391 6.3828 12.2912 6.34789 12.3116 6.3568C12.3191 6.37102 12.2362 6.43135 12.2839 6.44112C12.2933 6.42532 12.3024 6.42503 12.3113 6.44026C12.3116 6.46181 12.2769 6.45836 12.2639 6.46267C12.2553 6.48766 12.2989 6.50964 12.3158 6.5016C12.3096 6.53579 12.2835 6.54943 12.2858 6.55848C12.2975 6.5582 12.3032 6.55863 12.3177 6.55101C12.3015 6.55705 12.36 6.75672 12.3715 6.59971C12.3743 6.59454 12.4168 6.64467 12.4112 6.61882C12.4427 6.62126 12.4039 6.65875 12.4009 6.66521C12.4034 6.6599 12.4429 6.64769 12.4477 6.65085C12.4485 6.65717 12.4127 6.67355 12.4256 6.68245C12.4339 6.67829 12.442 6.67412 12.4502 6.66996C12.4508 6.67024 12.4273 6.70802 12.4291 6.71233C12.4446 6.72009 12.4753 6.7119 12.4914 6.70888C12.4597 6.73761 12.4165 6.93772 12.4664 6.95955C12.5266 6.98598 12.5381 6.7912 12.5403 6.76994C12.5487 6.68288 12.6353 6.5559 12.596 6.4733C12.4037 6.36097 12.3563 6.19304 12.4062 6.15899Z" fill="#F9FAFB"/>
</svg>
