<svg width="32" height="32" viewBox="0 0 32 32" fill="none" xmlns="http://www.w3.org/2000/svg">
<rect width="32" height="32" fill="black"/>
<path fill-rule="evenodd" clip-rule="evenodd" d="M13.1124 6H5C4.44772 6 4 6.44772 4 7V26H4.88786C8.12769 21.0473 11.5688 17.9057 13.0311 18.75C14.1637 19.4039 13.8191 22.2814 12.3659 26H15.0333C15.4742 25.1048 15.9645 24.1859 16.5 23.2583C20.0899 17.0405 24.3571 12.7835 26.0311 13.75C27.6369 14.6771 26.2733 20.0737 22.9911 26H28V7C28 6.44772 27.5523 6 27 6H20.8206C17.4033 11.5316 13.5911 15.1674 12.0311 14.2667C10.7972 13.5543 11.3165 10.2029 13.1124 6Z" fill="white"/>
</svg>
